General
Complete name                    : Date.Night.2010.mkv
Format                           : Matroska
File size                        : 978 MiB
Duration                         : 1h 24mn
Overall bit rate                 : 1 623 Kbps
Writing application              : HandBrake 0.9.4

Video

Format                           : AVC
Duration                         : 1h 24mn
Bit rate                         : 1 143 Kbps
Width                            : 718 pixels
Height                           : 436 pixels
Display aspect ratio             : 2.35:1
Stream size                      : 688 MiB (70%)
Writing library                  : x264 core 79

Audio

Format                           : AC-3
Duration                         : 1h 24mn
Bit rate                         : 448 Kbps
Channel(s)                       : 6 channels
Channel positions                : Front: L C R, Side: L R, LFE
Sampling rate                    : 48.0 KHz
Stream size                      : 270 MiB (28%)
Language                         : English

Text #1
Language                         : Danish

Text #2
Language                         : Finnish

Text #3
Language                         : Norwegian

Text #4
Language                         : Swedish

Text #5
Language                         : English

Menu
00:00:00.000                     : Chapter 1
00:03:42.640                     : Chapter 2

